<svg width="2395" height="482" viewBox="0 0 2395 482" fill="none" xmlns="http://www.w3.org/2000/svg">
<mask id="path-1-outside-1_3338_7" maskUnits="userSpaceOnUse" x="0" y="0" width="471" height="482" fill="black">
<rect fill="white" width="471" height="482"/>
<path fill-rule="evenodd" clip-rule="evenodd" d="M227.273 7.69389C224.89 8.19057 221.291 9.20166 219.275 9.93995C217.259 10.6788 213.66 12.3719 211.277 13.7029C208.895 15.0333 203.196 18.0507 198.614 20.4074C194.032 22.7642 189.533 25.1638 188.617 25.7393C187.701 26.3155 182.752 28.9274 177.62 31.5441C172.488 34.1608 162.291 39.475 154.96 43.3536C147.628 47.2322 138.181 52.2472 133.965 54.4976C129.75 56.7479 123.601 60.0411 120.302 61.8162C117.003 63.5913 113.404 65.5205 112.305 66.1034C111.205 66.6857 108.718 68.0265 106.777 69.0828C104.836 70.1392 103.105 71.0035 102.93 71.0035C102.755 71.0035 101.493 71.6518 100.127 72.4439C98.7602 73.2361 92.0934 76.8571 85.3119 80.4904C78.5304 84.1238 64.4343 91.7721 53.9871 97.4863C43.54 103.201 33.3428 108.91 31.3267 110.173C29.3106 111.436 25.6342 114.33 23.1576 116.605C20.6803 118.88 17.5784 122.228 16.2648 124.044C14.9512 125.861 12.8817 129.327 11.6667 131.747C10.4511 134.166 8.90415 137.798 8.22833 139.816C7.05665 143.317 7 147.985 7 241.047C7 329.901 7.09798 338.881 8.09504 341.667C8.69754 343.349 9.83656 346.213 10.6257 348.031C11.4148 349.85 13.2243 353.167 14.6472 355.402C16.0695 357.637 19.1847 361.4 21.57 363.765C23.9547 366.129 27.5011 369.188 29.4499 370.563C31.3987 371.938 35.6922 374.503 38.9912 376.264C42.2903 378.025 46.6392 380.348 48.6553 381.427C50.6714 382.506 57.2696 386.088 63.3179 389.387C69.3663 392.686 77.764 397.223 81.9795 399.47C86.195 401.716 93.8429 405.844 98.9748 408.642C104.107 411.441 110.855 415.098 113.971 416.771C117.087 418.444 120.686 420.357 121.969 421.023C123.252 421.69 127.9 424.171 132.299 426.538C136.698 428.905 142.846 432.219 145.962 433.903C149.078 435.587 152.677 437.505 153.96 438.165C155.243 438.826 160.641 441.719 165.957 444.595C171.272 447.47 180.719 452.57 186.951 455.928C193.182 459.285 200.68 463.335 203.613 464.929C206.545 466.521 211.044 468.805 213.61 470.003C216.176 471.201 220.675 472.813 223.607 473.585C227.876 474.709 230.602 474.991 237.27 475C244.083 475.009 246.473 474.759 250.385 473.63C253.017 472.871 257.446 471.143 260.229 469.79C263.011 468.437 271.356 463.996 278.772 459.923C286.188 455.85 297.654 449.624 304.252 446.089C310.85 442.554 321.439 436.811 327.782 433.328C334.125 429.845 339.454 426.995 339.626 426.995C339.797 426.995 341.056 426.341 342.422 425.542C343.789 424.743 351.656 420.43 359.903 415.957C368.151 411.483 378.798 405.713 383.564 403.132C388.329 400.552 399.726 394.371 408.89 389.397C418.054 384.424 427.652 379.238 430.218 377.873C432.784 376.508 436.832 374.149 439.215 372.63C441.598 371.112 445.212 368.341 447.247 366.473C449.282 364.604 452.165 361.424 453.653 359.405C455.141 357.387 457.117 354.359 458.043 352.677C458.969 350.995 460.577 347.279 461.616 344.419C463.504 339.22 463.504 339.22 463.856 278.665C464.05 245.36 464.048 200.769 463.852 179.575C463.499 141.328 463.484 141.01 461.962 137.064C461.118 134.877 459.531 131.455 458.435 129.459C457.337 127.463 455.502 124.573 454.356 123.036C453.209 121.5 450.159 118.285 447.576 115.892C444.993 113.5 441.524 110.707 439.865 109.688C438.206 108.668 435.207 106.94 433.2 105.848C431.193 104.756 428.651 103.388 427.552 102.808C426.452 102.229 423.603 100.71 421.22 99.4351C418.837 98.1597 412.539 94.7209 407.224 91.7935C401.909 88.866 396.21 85.7826 394.561 84.9416C392.911 84.1011 388.262 81.6251 384.23 79.4402C380.198 77.2547 371.8 72.71 365.569 69.3409C359.337 65.9713 344.641 58.1957 332.911 52.0619C321.181 45.9287 310.234 40.1503 308.584 39.2211C306.935 38.2926 299.287 34.1529 291.589 30.0216C283.891 25.8904 273.694 20.3842 268.928 17.7864C264.163 15.1881 258.465 12.2343 256.265 11.2226C254.066 10.2103 250.523 8.92151 248.394 8.35817C246.264 7.79482 241.615 7.2119 238.063 7.06265C233.765 6.8816 230.156 7.09323 227.273 7.69389ZM227.606 54.7288C226.14 55.1527 221.041 57.5694 216.276 60.0998C211.511 62.6297 202.363 67.5322 195.948 70.9937C189.533 74.4557 180.686 79.2157 176.287 81.5713C171.888 83.9268 164.39 87.9167 159.625 90.438C154.86 92.9593 144.362 98.6105 136.298 102.997C128.234 107.382 115.037 114.589 106.973 119.012C98.9082 123.435 88.7856 128.957 84.4788 131.285C80.172 133.613 76.6523 135.659 76.6583 135.832C76.6643 136.005 85.5865 141.032 96.4862 147.003C107.386 152.974 120.327 160.062 125.245 162.754C130.162 165.445 134.257 167.647 134.343 167.647C134.428 167.647 137.753 169.518 141.73 171.805C145.707 174.092 162.308 183.275 178.62 192.211C194.932 201.148 211.932 210.431 216.398 212.84C220.864 215.249 225.663 217.676 227.062 218.232C228.787 218.918 231.535 219.25 235.604 219.263C240.721 219.281 242.168 219.044 245.447 217.655C247.562 216.759 252.061 214.459 255.445 212.544C258.828 210.628 268.195 205.426 276.26 200.984C284.324 196.542 302.019 186.848 315.582 179.443C329.145 172.037 348.34 161.571 358.237 156.184C368.135 150.798 380.507 144.134 385.73 141.375C390.953 138.617 395.227 136.169 395.227 135.936C395.227 135.703 390.954 133.178 385.73 130.324C380.507 127.471 373.684 123.797 370.568 122.159C367.451 120.522 359.803 116.424 353.572 113.052C347.34 109.68 339.392 105.345 335.91 103.418C332.428 101.492 324.63 97.3028 318.581 94.1099C312.533 90.917 299.187 83.8179 288.923 78.3343C278.659 72.8513 269.362 67.8956 268.262 67.3218C267.162 66.7481 262.074 64.0219 256.954 61.2633C251.835 58.5046 245.921 55.7142 243.813 55.0622C241.329 54.2939 238.269 53.8914 235.126 53.9177C232.456 53.9403 229.073 54.3055 227.606 54.7288ZM53.3207 246.822C53.3207 287.38 53.474 320.564 53.6612 320.564C53.8485 320.564 60.3714 317.078 68.1573 312.817C75.9425 308.556 89.5108 301.085 98.3084 296.213C107.106 291.342 118.653 285.017 123.968 282.157C129.283 279.297 145.629 270.349 160.291 262.272C174.954 254.196 187.201 247.387 187.506 247.141C187.811 246.896 185.562 245.325 182.507 243.649C179.453 241.973 168.706 236.119 158.625 230.639C148.545 225.16 120.952 210.077 97.3086 197.122C73.6651 184.167 54.0951 173.458 53.8205 173.324C53.5459 173.189 53.3207 206.264 53.3207 246.822ZM416.188 174.33C415.84 174.642 411.806 176.878 407.224 179.3C402.642 181.722 397.543 184.398 395.894 185.246C394.244 186.094 390.495 188.085 387.563 189.671C384.63 191.256 378.932 194.341 374.899 196.526C370.867 198.71 360.52 204.432 351.906 209.241C343.291 214.05 330.245 221.219 322.914 225.173C315.582 229.126 302.536 236.284 293.922 241.079C285.307 245.873 271.661 253.417 263.596 257.844C255.532 262.27 243.685 268.73 237.27 272.198C230.855 275.667 220.808 281.192 214.943 284.475C209.078 287.758 195.282 295.386 184.285 301.425C173.288 307.464 162.941 313.1 161.291 313.949C159.642 314.797 153.343 318.187 147.295 321.483C141.247 324.778 126.851 332.701 115.304 339.088C103.757 345.475 94.2435 350.747 94.1621 350.805C94.0815 350.862 95.8897 351.897 98.1804 353.106C100.471 354.316 105.936 357.157 110.324 359.421C114.713 361.686 119.653 364.23 121.302 365.076C122.952 365.922 127.15 368.13 130.633 369.983C134.115 371.836 141.539 375.787 147.128 378.765C152.719 381.742 162.016 386.692 167.789 389.765C173.563 392.838 187.134 400.028 197.948 405.744C208.761 411.458 218.509 416.613 219.609 417.198C220.708 417.782 223.258 419.161 225.274 420.262C227.29 421.363 230.289 422.816 231.938 423.49C234.082 424.366 236.459 424.729 240.27 424.761C243.202 424.786 246.801 424.439 248.267 423.991C249.734 423.543 257.831 419.577 266.262 415.179C274.693 410.781 295.988 399.623 313.583 390.383C331.178 381.144 351.422 370.571 358.571 366.889C365.719 363.206 378.315 356.742 386.563 352.525C394.811 348.307 402.758 344.1 404.225 343.177C405.691 342.253 408.156 340.253 409.702 338.733C411.248 337.213 413.398 334.361 414.479 332.396C415.561 330.43 416.771 327.189 417.167 325.192C417.658 322.721 417.888 297.999 417.888 247.663C417.888 207.018 417.648 173.764 417.354 173.764C417.061 173.764 416.536 174.019 416.188 174.33Z"/>
</mask>
<path fill-rule="evenodd" clip-rule="evenodd" d="M227.273 7.69389C224.89 8.19057 221.291 9.20166 219.275 9.93995C217.259 10.6788 213.66 12.3719 211.277 13.7029C208.895 15.0333 203.196 18.0507 198.614 20.4074C194.032 22.7642 189.533 25.1638 188.617 25.7393C187.701 26.3155 182.752 28.9274 177.62 31.5441C172.488 34.1608 162.291 39.475 154.96 43.3536C147.628 47.2322 138.181 52.2472 133.965 54.4976C129.75 56.7479 123.601 60.0411 120.302 61.8162C117.003 63.5913 113.404 65.5205 112.305 66.1034C111.205 66.6857 108.718 68.0265 106.777 69.0828C104.836 70.1392 103.105 71.0035 102.93 71.0035C102.755 71.0035 101.493 71.6518 100.127 72.4439C98.7602 73.2361 92.0934 76.8571 85.3119 80.4904C78.5304 84.1238 64.4343 91.7721 53.9871 97.4863C43.54 103.201 33.3428 108.91 31.3267 110.173C29.3106 111.436 25.6342 114.33 23.1576 116.605C20.6803 118.88 17.5784 122.228 16.2648 124.044C14.9512 125.861 12.8817 129.327 11.6667 131.747C10.4511 134.166 8.90415 137.798 8.22833 139.816C7.05665 143.317 7 147.985 7 241.047C7 329.901 7.09798 338.881 8.09504 341.667C8.69754 343.349 9.83656 346.213 10.6257 348.031C11.4148 349.85 13.2243 353.167 14.6472 355.402C16.0695 357.637 19.1847 361.4 21.57 363.765C23.9547 366.129 27.5011 369.188 29.4499 370.563C31.3987 371.938 35.6922 374.503 38.9912 376.264C42.2903 378.025 46.6392 380.348 48.6553 381.427C50.6714 382.506 57.2696 386.088 63.3179 389.387C69.3663 392.686 77.764 397.223 81.9795 399.47C86.195 401.716 93.8429 405.844 98.9748 408.642C104.107 411.441 110.855 415.098 113.971 416.771C117.087 418.444 120.686 420.357 121.969 421.023C123.252 421.69 127.9 424.171 132.299 426.538C136.698 428.905 142.846 432.219 145.962 433.903C149.078 435.587 152.677 437.505 153.96 438.165C155.243 438.826 160.641 441.719 165.957 444.595C171.272 447.47 180.719 452.57 186.951 455.928C193.182 459.285 200.68 463.335 203.613 464.929C206.545 466.521 211.044 468.805 213.61 470.003C216.176 471.201 220.675 472.813 223.607 473.585C227.876 474.709 230.602 474.991 237.27 475C244.083 475.009 246.473 474.759 250.385 473.63C253.017 472.871 257.446 471.143 260.229 469.79C263.011 468.437 271.356 463.996 278.772 459.923C286.188 455.85 297.654 449.624 304.252 446.089C310.85 442.554 321.439 436.811 327.782 433.328C334.125 429.845 339.454 426.995 339.626 426.995C339.797 426.995 341.056 426.341 342.422 425.542C343.789 424.743 351.656 420.43 359.903 415.957C368.151 411.483 378.798 405.713 383.564 403.132C388.329 400.552 399.726 394.371 408.89 389.397C418.054 384.424 427.652 379.238 430.218 377.873C432.784 376.508 436.832 374.149 439.215 372.63C441.598 371.112 445.212 368.341 447.247 366.473C449.282 364.604 452.165 361.424 453.653 359.405C455.141 357.387 457.117 354.359 458.043 352.677C458.969 350.995 460.577 347.279 461.616 344.419C463.504 339.22 463.504 339.22 463.856 278.665C464.05 245.36 464.048 200.769 463.852 179.575C463.499 141.328 463.484 141.01 461.962 137.064C461.118 134.877 459.531 131.455 458.435 129.459C457.337 127.463 455.502 124.573 454.356 123.036C453.209 121.5 450.159 118.285 447.576 115.892C444.993 113.5 441.524 110.707 439.865 109.688C438.206 108.668 435.207 106.94 433.2 105.848C431.193 104.756 428.651 103.388 427.552 102.808C426.452 102.229 423.603 100.71 421.22 99.4351C418.837 98.1597 412.539 94.7209 407.224 91.7935C401.909 88.866 396.21 85.7826 394.561 84.9416C392.911 84.1011 388.262 81.6251 384.23 79.4402C380.198 77.2547 371.8 72.71 365.569 69.3409C359.337 65.9713 344.641 58.1957 332.911 52.0619C321.181 45.9287 310.234 40.1503 308.584 39.2211C306.935 38.2926 299.287 34.1529 291.589 30.0216C283.891 25.8904 273.694 20.3842 268.928 17.7864C264.163 15.1881 258.465 12.2343 256.265 11.2226C254.066 10.2103 250.523 8.92151 248.394 8.35817C246.264 7.79482 241.615 7.2119 238.063 7.06265C233.765 6.8816 230.156 7.09323 227.273 7.69389ZM227.606 54.7288C226.14 55.1527 221.041 57.5694 216.276 60.0998C211.511 62.6297 202.363 67.5322 195.948 70.9937C189.533 74.4557 180.686 79.2157 176.287 81.5713C171.888 83.9268 164.39 87.9167 159.625 90.438C154.86 92.9593 144.362 98.6105 136.298 102.997C128.234 107.382 115.037 114.589 106.973 119.012C98.9082 123.435 88.7856 128.957 84.4788 131.285C80.172 133.613 76.6523 135.659 76.6583 135.832C76.6643 136.005 85.5865 141.032 96.4862 147.003C107.386 152.974 120.327 160.062 125.245 162.754C130.162 165.445 134.257 167.647 134.343 167.647C134.428 167.647 137.753 169.518 141.73 171.805C145.707 174.092 162.308 183.275 178.62 192.211C194.932 201.148 211.932 210.431 216.398 212.84C220.864 215.249 225.663 217.676 227.062 218.232C228.787 218.918 231.535 219.25 235.604 219.263C240.721 219.281 242.168 219.044 245.447 217.655C247.562 216.759 252.061 214.459 255.445 212.544C258.828 210.628 268.195 205.426 276.26 200.984C284.324 196.542 302.019 186.848 315.582 179.443C329.145 172.037 348.34 161.571 358.237 156.184C368.135 150.798 380.507 144.134 385.73 141.375C390.953 138.617 395.227 136.169 395.227 135.936C395.227 135.703 390.954 133.178 385.73 130.324C380.507 127.471 373.684 123.797 370.568 122.159C367.451 120.522 359.803 116.424 353.572 113.052C347.34 109.68 339.392 105.345 335.91 103.418C332.428 101.492 324.63 97.3028 318.581 94.1099C312.533 90.917 299.187 83.8179 288.923 78.3343C278.659 72.8513 269.362 67.8956 268.262 67.3218C267.162 66.7481 262.074 64.0219 256.954 61.2633C251.835 58.5046 245.921 55.7142 243.813 55.0622C241.329 54.2939 238.269 53.8914 235.126 53.9177C232.456 53.9403 229.073 54.3055 227.606 54.7288ZM53.3207 246.822C53.3207 287.38 53.474 320.564 53.6612 320.564C53.8485 320.564 60.3714 317.078 68.1573 312.817C75.9425 308.556 89.5108 301.085 98.3084 296.213C107.106 291.342 118.653 285.017 123.968 282.157C129.283 279.297 145.629 270.349 160.291 262.272C174.954 254.196 187.201 247.387 187.506 247.141C187.811 246.896 185.562 245.325 182.507 243.649C179.453 241.973 168.706 236.119 158.625 230.639C148.545 225.16 120.952 210.077 97.3086 197.122C73.6651 184.167 54.0951 173.458 53.8205 173.324C53.5459 173.189 53.3207 206.264 53.3207 246.822ZM416.188 174.33C415.84 174.642 411.806 176.878 407.224 179.3C402.642 181.722 397.543 184.398 395.894 185.246C394.244 186.094 390.495 188.085 387.563 189.671C384.63 191.256 378.932 194.341 374.899 196.526C370.867 198.71 360.52 204.432 351.906 209.241C343.291 214.05 330.245 221.219 322.914 225.173C315.582 229.126 302.536 236.284 293.922 241.079C285.307 245.873 271.661 253.417 263.596 257.844C255.532 262.27 243.685 268.73 237.27 272.198C230.855 275.667 220.808 281.192 214.943 284.475C209.078 287.758 195.282 295.386 184.285 301.425C173.288 307.464 162.941 313.1 161.291 313.949C159.642 314.797 153.343 318.187 147.295 321.483C141.247 324.778 126.851 332.701 115.304 339.088C103.757 345.475 94.2435 350.747 94.1621 350.805C94.0815 350.862 95.8897 351.897 98.1804 353.106C100.471 354.316 105.936 357.157 110.324 359.421C114.713 361.686 119.653 364.23 121.302 365.076C122.952 365.922 127.15 368.13 130.633 369.983C134.115 371.836 141.539 375.787 147.128 378.765C152.719 381.742 162.016 386.692 167.789 389.765C173.563 392.838 187.134 400.028 197.948 405.744C208.761 411.458 218.509 416.613 219.609 417.198C220.708 417.782 223.258 419.161 225.274 420.262C227.29 421.363 230.289 422.816 231.938 423.49C234.082 424.366 236.459 424.729 240.27 424.761C243.202 424.786 246.801 424.439 248.267 423.991C249.734 423.543 257.831 419.577 266.262 415.179C274.693 410.781 295.988 399.623 313.583 390.383C331.178 381.144 351.422 370.571 358.571 366.889C365.719 363.206 378.315 356.742 386.563 352.525C394.811 348.307 402.758 344.1 404.225 343.177C405.691 342.253 408.156 340.253 409.702 338.733C411.248 337.213 413.398 334.361 414.479 332.396C415.561 330.43 416.771 327.189 417.167 325.192C417.658 322.721 417.888 297.999 417.888 247.663C417.888 207.018 417.648 173.764 417.354 173.764C417.061 173.764 416.536 174.019 416.188 174.33Z" fill="#FF5722"/>
<path fill-rule="evenodd" clip-rule="evenodd" d="M227.273 7.69389C224.89 8.19057 221.291 9.20166 219.275 9.93995C217.259 10.6788 213.66 12.3719 211.277 13.7029C208.895 15.0333 203.196 18.0507 198.614 20.4074C194.032 22.7642 189.533 25.1638 188.617 25.7393C187.701 26.3155 182.752 28.9274 177.62 31.5441C172.488 34.1608 162.291 39.475 154.96 43.3536C147.628 47.2322 138.181 52.2472 133.965 54.4976C129.75 56.7479 123.601 60.0411 120.302 61.8162C117.003 63.5913 113.404 65.5205 112.305 66.1034C111.205 66.6857 108.718 68.0265 106.777 69.0828C104.836 70.1392 103.105 71.0035 102.93 71.0035C102.755 71.0035 101.493 71.6518 100.127 72.4439C98.7602 73.2361 92.0934 76.8571 85.3119 80.4904C78.5304 84.1238 64.4343 91.7721 53.9871 97.4863C43.54 103.201 33.3428 108.91 31.3267 110.173C29.3106 111.436 25.6342 114.33 23.1576 116.605C20.6803 118.88 17.5784 122.228 16.2648 124.044C14.9512 125.861 12.8817 129.327 11.6667 131.747C10.4511 134.166 8.90415 137.798 8.22833 139.816C7.05665 143.317 7 147.985 7 241.047C7 329.901 7.09798 338.881 8.09504 341.667C8.69754 343.349 9.83656 346.213 10.6257 348.031C11.4148 349.85 13.2243 353.167 14.6472 355.402C16.0695 357.637 19.1847 361.4 21.57 363.765C23.9547 366.129 27.5011 369.188 29.4499 370.563C31.3987 371.938 35.6922 374.503 38.9912 376.264C42.2903 378.025 46.6392 380.348 48.6553 381.427C50.6714 382.506 57.2696 386.088 63.3179 389.387C69.3663 392.686 77.764 397.223 81.9795 399.47C86.195 401.716 93.8429 405.844 98.9748 408.642C104.107 411.441 110.855 415.098 113.971 416.771C117.087 418.444 120.686 420.357 121.969 421.023C123.252 421.69 127.9 424.171 132.299 426.538C136.698 428.905 142.846 432.219 145.962 433.903C149.078 435.587 152.677 437.505 153.96 438.165C155.243 438.826 160.641 441.719 165.957 444.595C171.272 447.47 180.719 452.57 186.951 455.928C193.182 459.285 200.68 463.335 203.613 464.929C206.545 466.521 211.044 468.805 213.61 470.003C216.176 471.201 220.675 472.813 223.607 473.585C227.876 474.709 230.602 474.991 237.27 475C244.083 475.009 246.473 474.759 250.385 473.63C253.017 472.871 257.446 471.143 260.229 469.79C263.011 468.437 271.356 463.996 278.772 459.923C286.188 455.85 297.654 449.624 304.252 446.089C310.85 442.554 321.439 436.811 327.782 433.328C334.125 429.845 339.454 426.995 339.626 426.995C339.797 426.995 341.056 426.341 342.422 425.542C343.789 424.743 351.656 420.43 359.903 415.957C368.151 411.483 378.798 405.713 383.564 403.132C388.329 400.552 399.726 394.371 408.89 389.397C418.054 384.424 427.652 379.238 430.218 377.873C432.784 376.508 436.832 374.149 439.215 372.63C441.598 371.112 445.212 368.341 447.247 366.473C449.282 364.604 452.165 361.424 453.653 359.405C455.141 357.387 457.117 354.359 458.043 352.677C458.969 350.995 460.577 347.279 461.616 344.419C463.504 339.22 463.504 339.22 463.856 278.665C464.05 245.36 464.048 200.769 463.852 179.575C463.499 141.328 463.484 141.01 461.962 137.064C461.118 134.877 459.531 131.455 458.435 129.459C457.337 127.463 455.502 124.573 454.356 123.036C453.209 121.5 450.159 118.285 447.576 115.892C444.993 113.5 441.524 110.707 439.865 109.688C438.206 108.668 435.207 106.94 433.2 105.848C431.193 104.756 428.651 103.388 427.552 102.808C426.452 102.229 423.603 100.71 421.22 99.4351C418.837 98.1597 412.539 94.7209 407.224 91.7935C401.909 88.866 396.21 85.7826 394.561 84.9416C392.911 84.1011 388.262 81.6251 384.23 79.4402C380.198 77.2547 371.8 72.71 365.569 69.3409C359.337 65.9713 344.641 58.1957 332.911 52.0619C321.181 45.9287 310.234 40.1503 308.584 39.2211C306.935 38.2926 299.287 34.1529 291.589 30.0216C283.891 25.8904 273.694 20.3842 268.928 17.7864C264.163 15.1881 258.465 12.2343 256.265 11.2226C254.066 10.2103 250.523 8.92151 248.394 8.35817C246.264 7.79482 241.615 7.2119 238.063 7.06265C233.765 6.8816 230.156 7.09323 227.273 7.69389ZM227.606 54.7288C226.14 55.1527 221.041 57.5694 216.276 60.0998C211.511 62.6297 202.363 67.5322 195.948 70.9937C189.533 74.4557 180.686 79.2157 176.287 81.5713C171.888 83.9268 164.39 87.9167 159.625 90.438C154.86 92.9593 144.362 98.6105 136.298 102.997C128.234 107.382 115.037 114.589 106.973 119.012C98.9082 123.435 88.7856 128.957 84.4788 131.285C80.172 133.613 76.6523 135.659 76.6583 135.832C76.6643 136.005 85.5865 141.032 96.4862 147.003C107.386 152.974 120.327 160.062 125.245 162.754C130.162 165.445 134.257 167.647 134.343 167.647C134.428 167.647 137.753 169.518 141.73 171.805C145.707 174.092 162.308 183.275 178.62 192.211C194.932 201.148 211.932 210.431 216.398 212.84C220.864 215.249 225.663 217.676 227.062 218.232C228.787 218.918 231.535 219.25 235.604 219.263C240.721 219.281 242.168 219.044 245.447 217.655C247.562 216.759 252.061 214.459 255.445 212.544C258.828 210.628 268.195 205.426 276.26 200.984C284.324 196.542 302.019 186.848 315.582 179.443C329.145 172.037 348.34 161.571 358.237 156.184C368.135 150.798 380.507 144.134 385.73 141.375C390.953 138.617 395.227 136.169 395.227 135.936C395.227 135.703 390.954 133.178 385.73 130.324C380.507 127.471 373.684 123.797 370.568 122.159C367.451 120.522 359.803 116.424 353.572 113.052C347.34 109.68 339.392 105.345 335.91 103.418C332.428 101.492 324.63 97.3028 318.581 94.1099C312.533 90.917 299.187 83.8179 288.923 78.3343C278.659 72.8513 269.362 67.8956 268.262 67.3218C267.162 66.7481 262.074 64.0219 256.954 61.2633C251.835 58.5046 245.921 55.7142 243.813 55.0622C241.329 54.2939 238.269 53.8914 235.126 53.9177C232.456 53.9403 229.073 54.3055 227.606 54.7288ZM53.3207 246.822C53.3207 287.38 53.474 320.564 53.6612 320.564C53.8485 320.564 60.3714 317.078 68.1573 312.817C75.9425 308.556 89.5108 301.085 98.3084 296.213C107.106 291.342 118.653 285.017 123.968 282.157C129.283 279.297 145.629 270.349 160.291 262.272C174.954 254.196 187.201 247.387 187.506 247.141C187.811 246.896 185.562 245.325 182.507 243.649C179.453 241.973 168.706 236.119 158.625 230.639C148.545 225.16 120.952 210.077 97.3086 197.122C73.6651 184.167 54.0951 173.458 53.8205 173.324C53.5459 173.189 53.3207 206.264 53.3207 246.822ZM416.188 174.33C415.84 174.642 411.806 176.878 407.224 179.3C402.642 181.722 397.543 184.398 395.894 185.246C394.244 186.094 390.495 188.085 387.563 189.671C384.63 191.256 378.932 194.341 374.899 196.526C370.867 198.71 360.52 204.432 351.906 209.241C343.291 214.05 330.245 221.219 322.914 225.173C315.582 229.126 302.536 236.284 293.922 241.079C285.307 245.873 271.661 253.417 263.596 257.844C255.532 262.27 243.685 268.73 237.27 272.198C230.855 275.667 220.808 281.192 214.943 284.475C209.078 287.758 195.282 295.386 184.285 301.425C173.288 307.464 162.941 313.1 161.291 313.949C159.642 314.797 153.343 318.187 147.295 321.483C141.247 324.778 126.851 332.701 115.304 339.088C103.757 345.475 94.2435 350.747 94.1621 350.805C94.0815 350.862 95.8897 351.897 98.1804 353.106C100.471 354.316 105.936 357.157 110.324 359.421C114.713 361.686 119.653 364.23 121.302 365.076C122.952 365.922 127.15 368.13 130.633 369.983C134.115 371.836 141.539 375.787 147.128 378.765C152.719 381.742 162.016 386.692 167.789 389.765C173.563 392.838 187.134 400.028 197.948 405.744C208.761 411.458 218.509 416.613 219.609 417.198C220.708 417.782 223.258 419.161 225.274 420.262C227.29 421.363 230.289 422.816 231.938 423.49C234.082 424.366 236.459 424.729 240.27 424.761C243.202 424.786 246.801 424.439 248.267 423.991C249.734 423.543 257.831 419.577 266.262 415.179C274.693 410.781 295.988 399.623 313.583 390.383C331.178 381.144 351.422 370.571 358.571 366.889C365.719 363.206 378.315 356.742 386.563 352.525C394.811 348.307 402.758 344.1 404.225 343.177C405.691 342.253 408.156 340.253 409.702 338.733C411.248 337.213 413.398 334.361 414.479 332.396C415.561 330.43 416.771 327.189 417.167 325.192C417.658 322.721 417.888 297.999 417.888 247.663C417.888 207.018 417.648 173.764 417.354 173.764C417.061 173.764 416.536 174.019 416.188 174.33Z" stroke="#FF5722" stroke-width="14" mask="url(#path-1-outside-1_3338_7)"/>
<path d="M939.295 174.311H844.4C842.667 162.041 839.128 151.142 833.784 141.615C828.44 131.944 821.579 123.716 813.202 116.932C804.825 110.147 795.147 104.951 784.17 101.342C773.337 97.7332 761.566 95.9288 748.855 95.9288C725.89 95.9288 705.886 101.631 688.842 113.034C671.798 124.293 658.583 140.749 649.194 162.402C639.806 183.91 635.112 210.037 635.112 240.783C635.112 272.396 639.806 298.956 649.194 320.464C658.727 341.972 672.015 358.212 689.059 369.182C706.102 380.153 725.818 385.638 748.205 385.638C760.771 385.638 772.399 383.978 783.087 380.658C793.92 377.338 803.525 372.502 811.902 366.151C820.279 359.655 827.212 351.788 832.701 342.55C838.334 333.311 842.234 322.774 844.4 310.937L939.295 311.37C936.84 331.724 930.701 351.355 920.879 370.265C911.202 389.03 898.131 405.847 881.665 420.715C865.344 435.439 845.845 447.131 823.168 455.792C800.636 464.309 775.143 468.567 746.689 468.567C707.113 468.567 671.726 459.617 640.528 441.718C609.474 423.819 584.92 397.908 566.865 363.986C548.955 330.064 540 288.996 540 240.783C540 192.426 549.1 151.287 567.299 117.365C585.498 83.4426 610.196 57.604 641.395 39.849C672.593 21.9497 707.691 13 746.689 13C772.399 13 796.231 16.6087 818.185 23.8262C840.284 31.0437 859.855 41.5812 876.899 55.4387C893.942 69.1519 907.808 85.9687 918.496 105.889C929.329 125.809 936.262 148.616 939.295 174.311Z" fill="#FF5722"/>
<path d="M1099.73 468.784C1078.5 468.784 1059.57 465.103 1042.96 457.741C1026.35 450.235 1013.21 439.192 1003.53 424.613C994.001 409.889 989.234 391.557 989.234 369.615C989.234 351.139 992.628 335.621 999.417 323.063C1006.21 310.504 1015.45 300.4 1027.15 292.749C1038.85 285.099 1052.14 279.325 1067.01 275.427C1082.03 271.53 1097.78 268.787 1114.24 267.199C1133.6 265.179 1149.2 263.302 1161.04 261.57C1172.89 259.693 1181.48 256.951 1186.82 253.342C1192.17 249.733 1194.84 244.392 1194.84 237.319V236.02C1194.84 222.307 1190.51 211.697 1181.84 204.191C1173.32 196.685 1161.19 192.932 1145.44 192.932C1128.83 192.932 1115.62 196.613 1105.79 203.974C1095.97 211.192 1089.47 220.286 1086.3 231.256L1000.93 224.328C1005.27 204.119 1013.79 186.652 1026.5 171.929C1039.21 157.061 1055.6 145.657 1075.68 137.718C1095.9 129.634 1119.3 125.593 1145.88 125.593C1164.36 125.593 1182.06 127.758 1198.96 132.088C1216 136.419 1231.09 143.131 1244.24 152.225C1257.53 161.319 1268 173.011 1275.65 187.302C1283.31 201.448 1287.13 218.409 1287.13 238.185V462.504H1199.61V416.385H1197.01C1191.66 426.778 1184.51 435.944 1175.56 443.883C1166.6 451.678 1155.84 457.813 1143.28 462.288C1130.71 466.618 1116.19 468.784 1099.73 468.784ZM1126.16 405.125C1139.74 405.125 1151.73 402.455 1162.12 397.114C1172.52 391.629 1180.68 384.267 1186.61 375.029C1192.53 365.79 1195.49 355.325 1195.49 343.633V308.339C1192.6 310.216 1188.63 311.948 1183.57 313.536C1178.66 314.979 1173.1 316.35 1166.89 317.65C1160.68 318.804 1154.47 319.887 1148.26 320.897C1142.05 321.764 1136.42 322.557 1131.36 323.279C1120.53 324.867 1111.07 327.393 1102.98 330.858C1094.89 334.322 1088.61 339.013 1084.13 344.932C1079.65 350.706 1077.41 357.923 1077.41 366.584C1077.41 379.142 1081.96 388.742 1091.06 395.382C1100.31 401.878 1112.01 405.125 1126.16 405.125Z" fill="#FF5722"/>
<path d="M1572.14 320.897V129.923H1664.44V462.504H1575.83V402.094H1572.36C1564.85 421.581 1552.36 437.243 1534.88 449.08C1517.55 460.916 1496.39 466.835 1471.4 466.835C1449.16 466.835 1429.59 461.783 1412.69 451.678C1395.79 441.574 1382.57 427.211 1373.04 408.59C1363.65 389.969 1358.88 367.667 1358.74 341.684V129.923H1451.03V325.228C1451.18 344.859 1456.45 360.377 1466.85 371.781C1477.25 383.184 1491.19 388.886 1508.66 388.886C1519.79 388.886 1530.19 386.36 1539.86 381.308C1549.54 376.111 1557.34 368.461 1563.26 358.356C1569.33 348.252 1572.29 335.765 1572.14 320.897Z" fill="#FF5722"/>
<path d="M2015.15 224.761L1930.65 229.957C1929.21 222.74 1926.1 216.244 1921.34 210.47C1916.57 204.552 1910.29 199.86 1902.49 196.396C1894.83 192.787 1885.66 190.983 1874.97 190.983C1860.67 190.983 1848.61 194.014 1838.79 200.077C1828.97 205.995 1824.06 213.934 1824.06 223.895C1824.06 231.834 1827.24 238.546 1833.59 244.031C1839.95 249.517 1850.85 253.919 1866.31 257.239L1926.54 269.365C1958.89 276.005 1983.01 286.687 1998.9 301.41C2014.79 316.134 2022.73 335.477 2022.73 359.439C2022.73 381.236 2016.31 400.362 2003.45 416.818C1990.74 433.274 1973.26 446.121 1951.02 455.359C1928.92 464.453 1903.43 469 1874.54 469C1830.49 469 1795.39 459.834 1769.25 441.501C1743.25 423.025 1728.01 397.908 1723.53 366.151L1814.31 361.387C1817.05 374.812 1823.7 385.061 1834.24 392.134C1844.79 399.063 1858.29 402.527 1874.76 402.527C1890.93 402.527 1903.93 399.424 1913.76 393.217C1923.72 386.865 1928.78 378.709 1928.92 368.749C1928.78 360.377 1925.24 353.52 1918.3 348.18C1911.37 342.694 1900.68 338.508 1886.24 335.621L1828.61 324.145C1796.11 317.65 1771.92 306.39 1756.03 290.368C1740.29 274.345 1732.41 253.919 1732.41 229.091C1732.41 207.727 1738.19 189.323 1749.75 173.877C1761.45 158.432 1777.84 146.523 1798.93 138.151C1820.16 129.779 1845 125.593 1873.46 125.593C1915.49 125.593 1948.56 134.47 1972.69 152.225C1996.95 169.98 2011.11 194.159 2015.15 224.761Z" fill="#FF5722"/>
<path d="M2231.21 469C2197.56 469 2168.45 461.855 2143.9 447.564C2119.49 433.129 2100.64 413.065 2087.35 387.37C2074.06 361.532 2067.42 331.579 2067.42 297.513C2067.42 263.158 2074.06 233.133 2087.35 207.439C2100.64 181.6 2119.49 161.536 2143.9 147.245C2168.45 132.81 2197.56 125.593 2231.21 125.593C2264.86 125.593 2293.89 132.81 2318.3 147.245C2342.86 161.536 2361.78 181.6 2375.07 207.439C2388.36 233.133 2395 263.158 2395 297.513C2395 331.579 2388.36 361.532 2375.07 387.37C2361.78 413.065 2342.86 433.129 2318.3 447.564C2293.89 461.855 2264.86 469 2231.21 469ZM2231.64 397.547C2246.95 397.547 2259.73 393.217 2269.99 384.556C2280.24 375.75 2287.97 363.769 2293.17 348.613C2298.52 333.456 2301.19 316.206 2301.19 296.863C2301.19 277.52 2298.52 260.271 2293.17 245.114C2287.97 229.957 2280.24 217.976 2269.99 209.171C2259.73 200.366 2246.95 195.963 2231.64 195.963C2216.19 195.963 2203.19 200.366 2192.64 209.171C2182.24 217.976 2174.37 229.957 2169.03 245.114C2163.83 260.271 2161.23 277.52 2161.23 296.863C2161.23 316.206 2163.83 333.456 2169.03 348.613C2174.37 363.769 2182.24 375.75 2192.64 384.556C2203.19 393.217 2216.19 397.547 2231.64 397.547Z" fill="#FF5722"/>
</svg>
